<svg width="166" height="223" viewBox="0 0 166 223" fill="none" xmlns="http://www.w3.org/2000/svg">
<rect opacity="0.1" width="166" height="98" rx="20" fill="white"/>
<rect opacity="0.1" y="118" width="166" height="105" rx="20" fill="white"/>
<path d="M32.2 32.52C32.3333 29.8533 33.2667 27.8 35 26.36C36.76 24.8933 39.0667 24.16 41.92 24.16C43.8667 24.16 45.5333 24.5067 46.92 25.2C48.3067 25.8667 49.3467 26.7867 50.04 27.96C50.76 29.1067 51.12 30.4133 51.12 31.88C51.12 33.56 50.68 34.9867 49.8 36.16C48.9467 37.3067 47.92 38.08 46.72 38.48V38.64C48.2667 39.12 49.4667 39.9733 50.32 41.2C51.2 42.4267 51.64 44 51.64 45.92C51.64 47.52 51.2667 48.9467 50.52 50.2C49.8 51.4533 48.72 52.44 47.28 53.16C45.8667 53.8533 44.16 54.2 42.16 54.2C39.1467 54.2 36.6933 53.44 34.8 51.92C32.9067 50.4 31.9067 48.16 31.8 45.2H37.24C37.2933 46.5067 37.7333 47.56 38.56 48.36C39.4133 49.1333 40.5733 49.52 42.04 49.52C43.4 49.52 44.44 49.1467 45.16 48.4C45.9067 47.6267 46.28 46.64 46.28 45.44C46.28 43.84 45.7733 42.6933 44.76 42C43.7467 41.3067 42.1733 40.96 40.04 40.96H38.88V36.36H40.04C43.8267 36.36 45.72 35.0933 45.72 32.56C45.72 31.4133 45.3733 30.52 44.68 29.88C44.0133 29.24 43.04 28.92 41.76 28.92C40.5067 28.92 39.5333 29.2667 38.84 29.96C38.1733 30.6267 37.7867 31.48 37.68 32.52H32.2ZM61.9453 38.56C59.2786 37.1733 57.9453 35.0267 57.9453 32.12C57.9453 30.68 58.3053 29.3733 59.0253 28.2C59.772 27 60.8786 26.0533 62.3453 25.36C63.8386 24.64 65.652 24.28 67.7853 24.28C69.9186 24.28 71.7186 24.64 73.1853 25.36C74.6786 26.0533 75.7853 27 76.5053 28.2C77.252 29.3733 77.6253 30.68 77.6253 32.12C77.6253 33.5867 77.2653 34.88 76.5453 36C75.8253 37.0933 74.8653 37.9467 73.6653 38.56C75.132 39.2 76.2786 40.1333 77.1053 41.36C77.932 42.5867 78.3453 44.04 78.3453 45.72C78.3453 47.5333 77.8786 49.12 76.9453 50.48C76.0386 51.8133 74.7853 52.84 73.1853 53.56C71.5853 54.28 69.7853 54.64 67.7853 54.64C65.7853 54.64 63.9853 54.28 62.3853 53.56C60.812 52.84 59.5586 51.8133 58.6253 50.48C57.7186 49.12 57.2653 47.5333 57.2653 45.72C57.2653 44.04 57.6786 42.5867 58.5053 41.36C59.332 40.1067 60.4786 39.1733 61.9453 38.56ZM72.1853 32.92C72.1853 31.6133 71.7853 30.6 70.9853 29.88C70.212 29.16 69.1453 28.8 67.7853 28.8C66.452 28.8 65.3853 29.16 64.5853 29.88C63.812 30.6 63.4253 31.6267 63.4253 32.96C63.4253 34.16 63.8253 35.12 64.6253 35.84C65.452 36.56 66.5053 36.92 67.7853 36.92C69.0653 36.92 70.1186 36.56 70.9453 35.84C71.772 35.0933 72.1853 34.12 72.1853 32.92ZM67.7853 41C66.2653 41 65.0253 41.3867 64.0653 42.16C63.132 42.9333 62.6653 44.04 62.6653 45.48C62.6653 46.8133 63.1186 47.9067 64.0253 48.76C64.9586 49.5867 66.212 50 67.7853 50C69.3586 50 70.5986 49.5733 71.5053 48.72C72.412 47.8667 72.8653 46.7867 72.8653 45.48C72.8653 44.0667 72.3986 42.9733 71.4653 42.2C70.532 41.4 69.3053 41 67.7853 41ZM86.8884 54.28C85.8751 54.28 85.0351 53.9733 84.3684 53.36C83.7284 52.72 83.4084 51.9333 83.4084 51C83.4084 50.0667 83.7284 49.2933 84.3684 48.68C85.0351 48.04 85.8751 47.72 86.8884 47.72C87.8751 47.72 88.6884 48.04 89.3284 48.68C89.9684 49.2933 90.2884 50.0667 90.2884 51C90.2884 51.9333 89.9684 52.72 89.3284 53.36C88.6884 53.9733 87.8751 54.28 86.8884 54.28ZM86.8884 37.72C85.8751 37.72 85.0351 37.4133 84.3684 36.8C83.7284 36.16 83.4084 35.3733 83.4084 34.44C83.4084 33.5067 83.7284 32.7333 84.3684 32.12C85.0351 31.48 85.8751 31.16 86.8884 31.16C87.8751 31.16 88.6884 31.48 89.3284 32.12C89.9684 32.7333 90.2884 33.5067 90.2884 34.44C90.2884 35.3733 89.9684 36.16 89.3284 36.8C88.6884 37.4133 87.8751 37.72 86.8884 37.72ZM94.5963 30V24.84H104.236V54H98.4763V30H94.5963ZM110.528 48.32V43.92L123.608 25.2H130.128V43.44H133.648V48.32H130.128V54H124.528V48.32H110.528ZM124.888 31.2L116.688 43.44H124.888V31.2Z" fill="#FFE642"/>
<path d="M36.578 66.939V67.901H34.108V76H32.925V67.901H30.442V66.939H36.578ZM40.2172 66.939V76H39.0342V66.939H40.2172ZM52.4244 67.004V76H51.2414V69.292L48.2514 76H47.4194L44.4164 69.279V76H43.2334V67.004H44.5074L47.8354 74.44L51.1634 67.004H52.4244ZM56.6137 67.901V70.93H59.9157V71.905H56.6137V75.025H60.3057V76H55.4307V66.926H60.3057V67.901H56.6137Z" fill="white"/>
<path d="M31.44 148V142.84H41.08V172H35.32V148H31.44ZM62.7322 150.12C62.4655 149 61.9989 148.16 61.3322 147.6C60.6922 147.04 59.7589 146.76 58.5322 146.76C56.6922 146.76 55.3322 147.507 54.4522 149C53.5989 150.467 53.1589 152.867 53.1322 156.2C53.7722 155.133 54.7055 154.307 55.9322 153.72C57.1589 153.107 58.4922 152.8 59.9322 152.8C61.6655 152.8 63.1989 153.173 64.5322 153.92C65.8655 154.667 66.9055 155.76 67.6522 157.2C68.3989 158.613 68.7722 160.32 68.7722 162.32C68.7722 164.213 68.3855 165.907 67.6122 167.4C66.8655 168.867 65.7589 170.013 64.2922 170.84C62.8255 171.667 61.0789 172.08 59.0522 172.08C56.2789 172.08 54.0922 171.467 52.4922 170.24C50.9189 169.013 49.8122 167.307 49.1722 165.12C48.5589 162.907 48.2522 160.187 48.2522 156.96C48.2522 152.08 49.0922 148.4 50.7722 145.92C52.4522 143.413 55.1055 142.16 58.7322 142.16C61.5322 142.16 63.7055 142.92 65.2522 144.44C66.7989 145.96 67.6922 147.853 67.9322 150.12H62.7322ZM58.6522 157.4C57.2389 157.4 56.0522 157.813 55.0922 158.64C54.1322 159.467 53.6522 160.667 53.6522 162.24C53.6522 163.813 54.0922 165.053 54.9722 165.96C55.8789 166.867 57.1455 167.32 58.7722 167.32C60.2122 167.32 61.3455 166.88 62.1722 166C63.0255 165.12 63.4522 163.933 63.4522 162.44C63.4522 160.893 63.0389 159.667 62.2122 158.76C61.4122 157.853 60.2255 157.4 58.6522 157.4ZM93.7981 147.68H80.8381V154.52C81.3981 153.827 82.1981 153.267 83.2381 152.84C84.2781 152.387 85.3848 152.16 86.5581 152.16C88.6915 152.16 90.4381 152.627 91.7981 153.56C93.1581 154.493 94.1448 155.693 94.7581 157.16C95.3715 158.6 95.6781 160.147 95.6781 161.8C95.6781 164.867 94.7981 167.333 93.0381 169.2C91.3048 171.067 88.8248 172 85.5981 172C82.5581 172 80.1315 171.24 78.3181 169.72C76.5048 168.2 75.4781 166.213 75.2381 163.76H80.6781C80.9181 164.827 81.4515 165.68 82.2781 166.32C83.1315 166.96 84.2115 167.28 85.5181 167.28C87.0915 167.28 88.2781 166.787 89.0781 165.8C89.8781 164.813 90.2781 163.507 90.2781 161.88C90.2781 160.227 89.8648 158.973 89.0381 158.12C88.2381 157.24 87.0515 156.8 85.4781 156.8C84.3581 156.8 83.4248 157.08 82.6781 157.64C81.9315 158.2 81.3981 158.947 81.0781 159.88H75.7181V142.76H93.7981V147.68Z" fill="#FB1351"/>
<path d="M32.184 189.901V192.93H35.486V193.905H32.184V197.025H35.876V198H31.001V188.926H35.876V189.901H32.184ZM41.539 198.091C40.941 198.091 40.4037 197.987 39.927 197.779C39.459 197.562 39.0907 197.268 38.822 196.895C38.5534 196.514 38.4147 196.076 38.406 195.582H39.667C39.7104 196.007 39.8837 196.366 40.187 196.661C40.499 196.947 40.9497 197.09 41.539 197.09C42.1024 197.09 42.5444 196.951 42.865 196.674C43.1944 196.388 43.359 196.024 43.359 195.582C43.359 195.235 43.2637 194.954 43.073 194.737C42.8824 194.52 42.644 194.356 42.358 194.243C42.072 194.13 41.6864 194.009 41.201 193.879C40.603 193.723 40.122 193.567 39.758 193.411C39.4027 193.255 39.095 193.012 38.835 192.683C38.5837 192.345 38.458 191.894 38.458 191.331C38.458 190.837 38.5837 190.399 38.835 190.018C39.0864 189.637 39.4374 189.342 39.888 189.134C40.3474 188.926 40.8717 188.822 41.461 188.822C42.3104 188.822 43.0037 189.034 43.541 189.459C44.087 189.884 44.3947 190.447 44.464 191.149H43.164C43.1207 190.802 42.9387 190.499 42.618 190.239C42.2974 189.97 41.8727 189.836 41.344 189.836C40.85 189.836 40.447 189.966 40.135 190.226C39.823 190.477 39.667 190.833 39.667 191.292C39.667 191.621 39.758 191.89 39.94 192.098C40.1307 192.306 40.3604 192.466 40.629 192.579C40.9064 192.683 41.292 192.804 41.786 192.943C42.384 193.108 42.865 193.272 43.229 193.437C43.593 193.593 43.905 193.84 44.165 194.178C44.425 194.507 44.555 194.958 44.555 195.53C44.555 195.972 44.438 196.388 44.204 196.778C43.97 197.168 43.6234 197.484 43.164 197.727C42.7047 197.97 42.163 198.091 41.539 198.091ZM52.8729 188.939V189.901H50.4029V198H49.2199V189.901H46.7369V188.939H52.8729ZM59.3529 193.463C59.3529 192.579 59.5523 191.786 59.9509 191.084C60.3496 190.373 60.8913 189.819 61.5759 189.42C62.2693 189.021 63.0363 188.822 63.8769 188.822C64.8649 188.822 65.7273 189.06 66.4639 189.537C67.2006 190.014 67.7379 190.69 68.0759 191.565H66.6589C66.4076 191.019 66.0436 190.599 65.5669 190.304C65.0989 190.009 64.5356 189.862 63.8769 189.862C63.2443 189.862 62.6766 190.009 62.1739 190.304C61.6713 190.599 61.2769 191.019 60.9909 191.565C60.7049 192.102 60.5619 192.735 60.5619 193.463C60.5619 194.182 60.7049 194.815 60.9909 195.361C61.2769 195.898 61.6713 196.314 62.1739 196.609C62.6766 196.904 63.2443 197.051 63.8769 197.051C64.5356 197.051 65.0989 196.908 65.5669 196.622C66.0436 196.327 66.4076 195.907 66.6589 195.361H68.0759C67.7379 196.228 67.2006 196.899 66.4639 197.376C65.7273 197.844 64.8649 198.078 63.8769 198.078C63.0363 198.078 62.2693 197.883 61.5759 197.493C60.8913 197.094 60.3496 196.544 59.9509 195.842C59.5523 195.14 59.3529 194.347 59.3529 193.463ZM76.1929 195.985H72.2409L71.5129 198H70.2649L73.5409 188.991H74.9059L78.1689 198H76.9209L76.1929 195.985ZM75.8549 195.023L74.2169 190.447L72.5789 195.023H75.8549ZM81.7797 197.038H84.9517V198H80.5967V188.939H81.7797V197.038ZM91.316 198.091C90.4754 198.091 89.7084 197.896 89.015 197.506C88.3217 197.107 87.7714 196.557 87.364 195.855C86.9654 195.144 86.766 194.347 86.766 193.463C86.766 192.579 86.9654 191.786 87.364 191.084C87.7714 190.373 88.3217 189.823 89.015 189.433C89.7084 189.034 90.4754 188.835 91.316 188.835C92.1654 188.835 92.9367 189.034 93.63 189.433C94.3234 189.823 94.8694 190.369 95.268 191.071C95.6667 191.773 95.866 192.57 95.866 193.463C95.866 194.356 95.6667 195.153 95.268 195.855C94.8694 196.557 94.3234 197.107 93.63 197.506C92.9367 197.896 92.1654 198.091 91.316 198.091ZM91.316 197.064C91.9487 197.064 92.5164 196.917 93.019 196.622C93.5304 196.327 93.929 195.907 94.215 195.361C94.5097 194.815 94.657 194.182 94.657 193.463C94.657 192.735 94.5097 192.102 94.215 191.565C93.929 191.019 93.5347 190.599 93.032 190.304C92.5294 190.009 91.9574 189.862 91.316 189.862C90.6747 189.862 90.1027 190.009 89.6 190.304C89.0974 190.599 88.6987 191.019 88.404 191.565C88.118 192.102 87.975 192.735 87.975 193.463C87.975 194.182 88.118 194.815 88.404 195.361C88.6987 195.907 89.0974 196.327 89.6 196.622C90.1114 196.917 90.6834 197.064 91.316 197.064ZM103.199 198L101.041 194.295H99.6108V198H98.4278V188.939H101.353C102.037 188.939 102.614 189.056 103.082 189.29C103.558 189.524 103.914 189.84 104.148 190.239C104.382 190.638 104.499 191.093 104.499 191.604C104.499 192.228 104.317 192.778 103.953 193.255C103.597 193.732 103.06 194.048 102.341 194.204L104.616 198H103.199ZM99.6108 193.346H101.353C101.994 193.346 102.475 193.19 102.796 192.878C103.116 192.557 103.277 192.133 103.277 191.604C103.277 191.067 103.116 190.651 102.796 190.356C102.484 190.061 102.003 189.914 101.353 189.914H99.6108V193.346ZM108.52 188.939V198H107.337V188.939H108.52ZM112.719 189.901V192.93H116.021V193.905H112.719V197.025H116.411V198H111.536V188.926H116.411V189.901H112.719ZM122.074 198.091C121.476 198.091 120.939 197.987 120.462 197.779C119.994 197.562 119.626 197.268 119.357 196.895C119.089 196.514 118.95 196.076 118.941 195.582H120.202C120.246 196.007 120.419 196.366 120.722 196.661C121.034 196.947 121.485 197.09 122.074 197.09C122.638 197.09 123.08 196.951 123.4 196.674C123.73 196.388 123.894 196.024 123.894 195.582C123.894 195.235 123.799 194.954 123.608 194.737C123.418 194.52 123.179 194.356 122.893 194.243C122.607 194.13 122.222 194.009 121.736 193.879C121.138 193.723 120.657 193.567 120.293 193.411C119.938 193.255 119.63 193.012 119.37 192.683C119.119 192.345 118.993 191.894 118.993 191.331C118.993 190.837 119.119 190.399 119.37 190.018C119.622 189.637 119.973 189.342 120.423 189.134C120.883 188.926 121.407 188.822 121.996 188.822C122.846 188.822 123.539 189.034 124.076 189.459C124.622 189.884 124.93 190.447 124.999 191.149H123.699C123.656 190.802 123.474 190.499 123.153 190.239C122.833 189.97 122.408 189.836 121.879 189.836C121.385 189.836 120.982 189.966 120.67 190.226C120.358 190.477 120.202 190.833 120.202 191.292C120.202 191.621 120.293 191.89 120.475 192.098C120.666 192.306 120.896 192.466 121.164 192.579C121.442 192.683 121.827 192.804 122.321 192.943C122.919 193.108 123.4 193.272 123.764 193.437C124.128 193.593 124.44 193.84 124.7 194.178C124.96 194.507 125.09 194.958 125.09 195.53C125.09 195.972 124.973 196.388 124.739 196.778C124.505 197.168 124.159 197.484 123.699 197.727C123.24 197.97 122.698 198.091 122.074 198.091Z" fill="white"/>
</svg>
